<svg xmlns="http://www.w3.org/2000/svg" xmlns:xlink="http://www.w3.org/1999/xlink" width="500" zoomAndPan="magnify" viewBox="0 0 375 374.999991" height="500" preserveAspectRatio="xMidYMid meet" version="1.0"><defs><clipPath id="a638ea8bb2"><path d="M 88.46875 75 L 286 75 L 286 371.679688 L 88.46875 371.679688 Z M 88.46875 75 " clip-rule="nonzero"/></clipPath><clipPath id="c4b025cfc6"><path d="M 74.769531 39 L 300.519531 39 L 300.519531 76 L 74.769531 76 Z M 74.769531 39 " clip-rule="nonzero"/></clipPath><clipPath id="e2b78a0d43"><path d="M 74.769531 39 L 83 39 L 83 65 L 74.769531 65 Z M 74.769531 39 " clip-rule="nonzero"/></clipPath><clipPath id="c4bef11b84"><path d="M 74.769531 39 L 291 39 L 291 65 L 74.769531 65 Z M 74.769531 39 " clip-rule="nonzero"/></clipPath><clipPath id="373dc85b9e"><path d="M 96 3.453125 L 279 3.453125 L 279 40 L 96 40 Z M 96 3.453125 " clip-rule="nonzero"/></clipPath><clipPath id="a91ba7b4ae"><path d="M 130 3.453125 L 243 3.453125 L 243 4 L 130 4 Z M 130 3.453125 " clip-rule="nonzero"/></clipPath><clipPath id="9ec15d62f2"><path d="M 97 3.453125 L 265 3.453125 L 265 29 L 97 29 Z M 97 3.453125 " clip-rule="nonzero"/></clipPath><clipPath id="18dde176a2"><path d="M 75.367188 303.402344 L 94.734375 303.402344 L 94.734375 371.679688 L 75.367188 371.679688 Z M 75.367188 303.402344 " clip-rule="nonzero"/></clipPath><clipPath id="9d0bd49ab0"><path d="M 281.011719 303.402344 L 300.480469 303.402344 L 300.480469 371.679688 L 281.011719 371.679688 Z M 281.011719 303.402344 " clip-rule="nonzero"/></clipPath></defs><rect x="-37.5" width="450" fill="#ffffff" y="-37.499999" height="449.999989" fill-opacity="1"/><rect x="-37.5" width="450" fill="#ffffff" y="-37.499999" height="449.999989" fill-opacity="1"/><rect x="-37.5" width="450" fill="#ffffff" y="-37.499999" height="449.999989" fill-opacity="1"/><path fill="#636c76" d="M 286.539062 343.117188 L 87.371094 343.117188 C 84.914062 343.117188 82.910156 341.113281 82.910156 338.664062 L 82.910156 336.507812 C 82.910156 334.054688 84.914062 332.050781 87.371094 332.050781 L 286.539062 332.050781 C 288.992188 332.050781 291 334.054688 291 336.507812 L 291 338.664062 C 291 341.113281 288.992188 343.117188 286.539062 343.117188 " fill-opacity="1" fill-rule="nonzero"/><g clip-path="url(#a638ea8bb2)"><path fill="#1bbc9b" d="M 145.28125 371.679688 L 229.523438 371.679688 C 255.101562 371.679688 276.125 348.320312 277.179688 318.734375 L 285.855469 75.101562 L 88.949219 75.101562 L 97.625 318.734375 C 98.679688 348.320312 119.703125 371.679688 145.28125 371.679688 " fill-opacity="1" fill-rule="nonzero"/></g><path fill="#ffffff" d="M 97.628906 318.851562 C 97.628906 318.847656 97.628906 318.84375 97.628906 318.839844 C 97.628906 318.84375 97.628906 318.847656 97.628906 318.851562 M 97.628906 318.796875 C 97.628906 318.792969 97.628906 318.789062 97.625 318.785156 C 97.628906 318.785156 97.628906 318.796875 97.628906 318.796875 " fill-opacity="1" fill-rule="nonzero"/><path fill="#32c3a5" d="M 207.148438 339.734375 L 122.902344 339.734375 C 114.496094 339.734375 106.585938 337.195312 99.707031 332.757812 C 98.53125 328.332031 97.808594 323.679688 97.628906 318.851562 C 97.628906 318.847656 97.628906 318.84375 97.628906 318.839844 C 97.628906 318.828125 97.628906 318.8125 97.628906 318.796875 C 97.628906 318.796875 97.628906 318.785156 97.625 318.785156 C 97.625 318.765625 97.625 318.75 97.625 318.734375 L 88.949219 75.101562 L 89.082031 78.453125 L 262.222656 78.453125 L 254.804688 286.785156 C 253.753906 316.375 232.730469 339.734375 207.148438 339.734375 " fill-opacity="1" fill-rule="nonzero"/><g clip-path="url(#c4b025cfc6)"><path fill="#30bf9d" d="M 74.796875 47.761719 C 74.796875 43.074219 78.601562 39.277344 83.289062 39.277344 L 292.140625 39.277344 C 296.46875 39.277344 300.007812 42.636719 300.007812 46.746094 L 300.007812 67.628906 C 300.007812 71.738281 296.46875 75.101562 292.140625 75.101562 L 83.289062 75.101562 C 78.601562 75.101562 74.796875 71.300781 74.796875 66.613281 L 74.796875 47.761719 " fill-opacity="1" fill-rule="nonzero"/></g><g clip-path="url(#e2b78a0d43)"><path fill="#ffffff" d="M 74.796875 64.734375 L 74.796875 47.761719 C 74.796875 43.1875 78.425781 39.457031 82.964844 39.28125 C 78.425781 39.457031 74.796875 43.1875 74.796875 47.761719 L 74.796875 64.734375 " fill-opacity="1" fill-rule="nonzero"/></g><g clip-path="url(#c4bef11b84)"><path fill="#45c6a7" d="M 282.464844 64.734375 L 74.796875 64.734375 L 74.796875 47.761719 C 74.796875 43.1875 78.425781 39.457031 82.964844 39.28125 C 83.074219 39.277344 83.183594 39.277344 83.289062 39.277344 L 290.332031 39.277344 L 290.332031 57.265625 C 290.332031 61.371094 286.789062 64.734375 282.464844 64.734375 " fill-opacity="1" fill-rule="nonzero"/></g><path fill="#1ab293" d="M 285.722656 78.453125 L 262.222656 78.453125 L 262.339844 75.101562 L 285.855469 75.101562 L 285.722656 78.453125 " fill-opacity="1" fill-rule="nonzero"/><path fill="#28b69a" d="M 262.222656 78.453125 L 89.082031 78.453125 L 88.949219 75.101562 L 262.339844 75.101562 L 262.222656 78.453125 " fill-opacity="1" fill-rule="nonzero"/><g clip-path="url(#373dc85b9e)"><path fill="#1bbc9b" d="M 96.277344 39.277344 C 96.277344 19.574219 112.414062 3.453125 132.132812 3.453125 L 242.671875 3.453125 C 262.394531 3.453125 278.527344 19.574219 278.527344 39.277344 L 96.277344 39.277344 " fill-opacity="1" fill-rule="nonzero"/></g><g clip-path="url(#a91ba7b4ae)"><path fill="#ffffff" d="M 130.960938 3.472656 L 130.960938 3.472656 M 131.050781 3.46875 C 131.054688 3.46875 131.050781 3.46875 131.054688 3.46875 C 131.054688 3.46875 131.050781 3.46875 131.050781 3.46875 M 131.097656 3.46875 L 131.101562 3.46875 L 131.097656 3.46875 M 131.144531 3.464844 C 131.144531 3.464844 131.144531 3.464844 131.148438 3.464844 C 131.144531 3.464844 131.144531 3.464844 131.144531 3.464844 M 131.191406 3.464844 C 131.191406 3.464844 131.195312 3.464844 131.199219 3.464844 C 131.195312 3.464844 131.191406 3.464844 131.191406 3.464844 M 131.285156 3.460938 C 131.285156 3.460938 131.285156 3.460938 131.289062 3.460938 C 131.285156 3.460938 131.285156 3.460938 131.285156 3.460938 M 131.332031 3.460938 C 131.335938 3.460938 131.335938 3.460938 131.335938 3.460938 C 131.335938 3.460938 131.332031 3.460938 131.332031 3.460938 M 131.425781 3.457031 C 131.425781 3.457031 131.429688 3.457031 131.429688 3.457031 C 131.429688 3.457031 131.425781 3.457031 131.425781 3.457031 M 131.472656 3.457031 C 131.472656 3.457031 131.476562 3.457031 131.476562 3.457031 C 131.476562 3.457031 131.476562 3.457031 131.472656 3.457031 M 131.519531 3.457031 C 131.519531 3.457031 131.523438 3.457031 131.523438 3.457031 C 131.523438 3.457031 131.519531 3.457031 131.519531 3.457031 M 131.5625 3.457031 C 131.566406 3.457031 131.570312 3.457031 131.574219 3.457031 C 131.570312 3.457031 131.566406 3.457031 131.5625 3.457031 M 131.617188 3.457031 L 131.617188 3.457031 M 131.65625 3.457031 C 131.660156 3.457031 131.664062 3.457031 131.667969 3.457031 C 131.664062 3.457031 131.660156 3.457031 131.65625 3.457031 M 131.707031 3.453125 C 131.710938 3.453125 131.710938 3.453125 131.714844 3.453125 C 131.710938 3.453125 131.710938 3.453125 131.707031 3.453125 M 131.796875 3.453125 C 131.800781 3.453125 131.800781 3.453125 131.808594 3.453125 C 131.804688 3.453125 131.800781 3.453125 131.796875 3.453125 M 131.847656 3.453125 C 131.851562 3.453125 131.851562 3.453125 131.855469 3.453125 C 131.851562 3.453125 131.847656 3.453125 131.847656 3.453125 M 242.914062 3.453125 C 242.914062 3.453125 242.914062 3.453125 242.910156 3.453125 C 242.910156 3.453125 242.914062 3.453125 242.914062 3.453125 M 131.890625 3.453125 C 131.894531 3.453125 131.894531 3.453125 131.898438 3.453125 C 131.898438 3.453125 131.894531 3.453125 131.890625 3.453125 M 242.867188 3.453125 C 242.863281 3.453125 242.863281 3.453125 242.863281 3.453125 C 242.863281 3.453125 242.863281 3.453125 242.867188 3.453125 M 131.941406 3.453125 C 131.941406 3.453125 131.945312 3.453125 131.945312 3.453125 C 131.945312 3.453125 131.941406 3.453125 131.941406 3.453125 M 131.988281 3.453125 C 131.992188 3.453125 131.992188 3.453125 131.992188 3.453125 C 131.992188 3.453125 131.992188 3.453125 131.988281 3.453125 M 242.773438 3.453125 C 242.769531 3.453125 242.769531 3.453125 242.765625 3.453125 C 242.769531 3.453125 242.769531 3.453125 242.773438 3.453125 M 132.035156 3.453125 C 132.035156 3.453125 132.039062 3.453125 132.039062 3.453125 C 132.039062 3.453125 132.035156 3.453125 132.035156 3.453125 M 242.722656 3.453125 C 242.722656 3.453125 242.71875 3.453125 242.714844 3.453125 C 242.71875 3.453125 242.722656 3.453125 242.722656 3.453125 M 132.082031 3.453125 C 132.085938 3.453125 132.085938 3.453125 132.089844 3.453125 C 132.085938 3.453125 132.085938 3.453125 132.082031 3.453125 " fill-opacity="1" fill-rule="nonzero"/></g><g clip-path="url(#9ec15d62f2)"><path fill="#32c3a5" d="M 250.871094 28.910156 L 216.800781 28.910156 C 221.007812 25.585938 223.71875 20.445312 223.71875 14.703125 C 223.71875 13.917969 223.085938 13.285156 222.300781 13.285156 L 152.503906 13.285156 C 151.71875 13.285156 151.085938 13.917969 151.085938 14.703125 C 151.085938 14.710938 151.085938 14.71875 151.085938 14.726562 C 151.085938 14.730469 151.085938 14.734375 151.085938 14.738281 C 151.085938 14.742188 151.085938 14.75 151.085938 14.753906 C 151.085938 14.757812 151.085938 14.761719 151.085938 14.765625 C 151.085938 14.773438 151.085938 14.777344 151.085938 14.78125 C 151.085938 14.785156 151.085938 14.789062 151.085938 14.792969 C 151.085938 14.800781 151.085938 14.804688 151.085938 14.808594 C 151.085938 14.816406 151.085938 14.816406 151.085938 14.820312 C 151.085938 14.828125 151.085938 14.832031 151.085938 14.839844 C 151.085938 14.84375 151.085938 14.851562 151.085938 14.855469 C 151.085938 14.863281 151.085938 14.867188 151.089844 14.871094 C 151.089844 14.878906 151.089844 14.882812 151.089844 14.886719 C 151.089844 14.890625 151.089844 14.894531 151.089844 14.898438 C 151.089844 14.902344 151.089844 14.910156 151.089844 14.914062 C 151.089844 14.917969 151.089844 14.921875 151.089844 14.925781 C 151.089844 14.929688 151.089844 14.9375 151.089844 14.941406 C 151.089844 14.945312 151.089844 14.949219 151.089844 14.953125 C 151.089844 14.957031 151.089844 14.964844 151.089844 14.96875 C 151.089844 14.96875 151.089844 14.972656 151.089844 14.976562 C 151.089844 14.996094 151.089844 15.015625 151.089844 15.039062 C 151.089844 15.042969 151.089844 15.042969 151.089844 15.042969 C 151.089844 15.050781 151.089844 15.058594 151.089844 15.0625 C 151.089844 15.066406 151.089844 15.066406 151.089844 15.066406 C 151.203125 20.664062 153.886719 25.65625 158.003906 28.910156 L 99.742188 28.910156 L 97.867188 28.765625 C 102.277344 14.503906 115.40625 3.976562 130.960938 3.472656 C 130.992188 3.46875 131.023438 3.46875 131.050781 3.46875 C 131.050781 3.46875 131.054688 3.46875 131.054688 3.46875 C 131.070312 3.46875 131.085938 3.46875 131.097656 3.46875 L 131.101562 3.46875 C 131.113281 3.46875 131.128906 3.464844 131.144531 3.464844 C 131.144531 3.464844 131.144531 3.464844 131.148438 3.464844 C 131.160156 3.464844 131.175781 3.464844 131.191406 3.464844 C 131.191406 3.464844 131.195312 3.464844 131.199219 3.464844 C 131.210938 3.464844 131.226562 3.460938 131.242188 3.460938 C 131.253906 3.460938 131.269531 3.460938 131.285156 3.460938 C 131.285156 3.460938 131.285156 3.460938 131.289062 3.460938 C 131.304688 3.460938 131.320312 3.460938 131.332031 3.460938 C 131.332031 3.460938 131.335938 3.460938 131.335938 3.460938 C 131.367188 3.460938 131.394531 3.460938 131.425781 3.457031 C 131.425781 3.457031 131.429688 3.457031 131.429688 3.457031 C 131.445312 3.457031 131.460938 3.457031 131.472656 3.457031 C 131.476562 3.457031 131.476562 3.457031 131.476562 3.457031 C 131.492188 3.457031 131.503906 3.457031 131.519531 3.457031 C 131.519531 3.457031 131.523438 3.457031 131.523438 3.457031 C 131.539062 3.457031 131.550781 3.457031 131.5625 3.457031 C 131.566406 3.457031 131.570312 3.457031 131.574219 3.457031 C 131.585938 3.457031 131.601562 3.457031 131.617188 3.457031 C 131.632812 3.457031 131.644531 3.457031 131.65625 3.457031 C 131.660156 3.457031 131.664062 3.457031 131.667969 3.457031 C 131.679688 3.457031 131.695312 3.457031 131.707031 3.453125 C 131.710938 3.453125 131.710938 3.453125 131.714844 3.453125 C 131.742188 3.453125 131.769531 3.453125 131.796875 3.453125 C 131.800781 3.453125 131.804688 3.453125 131.808594 3.453125 C 131.820312 3.453125 131.832031 3.453125 131.847656 3.453125 C 131.847656 3.453125 131.851562 3.453125 131.855469 3.453125 C 131.867188 3.453125 131.878906 3.453125 131.890625 3.453125 C 131.894531 3.453125 131.898438 3.453125 131.898438 3.453125 C 131.914062 3.453125 131.925781 3.453125 131.941406 3.453125 C 131.941406 3.453125 131.945312 3.453125 131.945312 3.453125 C 131.960938 3.453125 131.976562 3.453125 131.988281 3.453125 C 131.992188 3.453125 131.992188 3.453125 131.992188 3.453125 C 132.007812 3.453125 132.019531 3.453125 132.035156 3.453125 C 132.035156 3.453125 132.039062 3.453125 132.039062 3.453125 C 132.054688 3.453125 132.066406 3.453125 132.082031 3.453125 C 132.085938 3.453125 132.085938 3.453125 132.089844 3.453125 C 132.101562 3.453125 132.117188 3.453125 132.132812 3.453125 L 242.671875 3.453125 C 242.6875 3.453125 242.703125 3.453125 242.714844 3.453125 C 242.71875 3.453125 242.722656 3.453125 242.722656 3.453125 C 242.738281 3.453125 242.753906 3.453125 242.765625 3.453125 C 242.769531 3.453125 242.769531 3.453125 242.773438 3.453125 C 242.800781 3.453125 242.832031 3.453125 242.863281 3.453125 C 242.863281 3.453125 242.863281 3.453125 242.867188 3.453125 C 242.882812 3.453125 242.894531 3.453125 242.910156 3.453125 C 242.914062 3.453125 242.914062 3.453125 242.914062 3.453125 C 251.003906 3.507812 258.472656 6.28125 264.460938 10.886719 L 264.460938 15.332031 C 264.460938 22.800781 258.347656 28.910156 250.871094 28.910156 " fill-opacity="1" fill-rule="nonzero"/></g><path fill="#17a086" d="M 152.503906 13.285156 L 222.300781 13.285156 C 223.085938 13.285156 223.71875 13.917969 223.71875 14.703125 C 223.71875 24.664062 215.5625 32.816406 205.589844 32.816406 L 169.214844 32.816406 C 159.242188 32.816406 151.085938 24.664062 151.085938 14.703125 C 151.085938 13.917969 151.71875 13.285156 152.503906 13.285156 " fill-opacity="1" fill-rule="nonzero"/><path fill="#27b793" d="M 151.089844 15.066406 C 151.089844 15.066406 151.089844 15.066406 151.089844 15.0625 C 151.089844 15.066406 151.089844 15.066406 151.089844 15.066406 M 151.089844 15.042969 C 151.089844 15.042969 151.089844 15.042969 151.089844 15.039062 C 151.089844 15.042969 151.089844 15.042969 151.089844 15.042969 M 151.089844 14.976562 C 151.089844 14.972656 151.089844 14.96875 151.089844 14.96875 C 151.089844 14.96875 151.089844 14.972656 151.089844 14.976562 M 151.089844 14.953125 C 151.089844 14.949219 151.089844 14.945312 151.089844 14.941406 C 151.089844 14.945312 151.089844 14.949219 151.089844 14.953125 M 151.089844 14.925781 C 151.089844 14.921875 151.089844 14.917969 151.089844 14.914062 C 151.089844 14.917969 151.089844 14.921875 151.089844 14.925781 M 151.089844 14.898438 C 151.089844 14.894531 151.089844 14.890625 151.089844 14.886719 C 151.089844 14.890625 151.089844 14.894531 151.089844 14.898438 M 151.089844 14.871094 C 151.085938 14.867188 151.085938 14.863281 151.085938 14.855469 C 151.085938 14.863281 151.085938 14.867188 151.089844 14.871094 M 151.085938 14.839844 C 151.085938 14.832031 151.085938 14.828125 151.085938 14.820312 C 151.085938 14.824219 151.085938 14.832031 151.085938 14.839844 M 151.085938 14.808594 C 151.085938 14.804688 151.085938 14.800781 151.085938 14.792969 C 151.085938 14.800781 151.085938 14.804688 151.085938 14.808594 M 151.085938 14.78125 C 151.085938 14.777344 151.085938 14.773438 151.085938 14.765625 C 151.085938 14.769531 151.085938 14.777344 151.085938 14.78125 M 151.085938 14.753906 C 151.085938 14.75 151.085938 14.742188 151.085938 14.738281 C 151.085938 14.742188 151.085938 14.75 151.085938 14.753906 M 151.085938 14.726562 C 151.085938 14.71875 151.085938 14.710938 151.085938 14.703125 C 151.085938 14.710938 151.085938 14.71875 151.085938 14.726562 " fill-opacity="1" fill-rule="nonzero"/><path fill="#129c7c" d="M 164.496094 32.167969 C 156.910156 30.105469 151.253906 23.238281 151.089844 15.066406 C 151.089844 15.066406 151.089844 15.066406 151.089844 15.0625 C 151.089844 15.058594 151.089844 15.050781 151.089844 15.042969 C 151.089844 15.042969 151.089844 15.042969 151.089844 15.039062 C 151.089844 15.015625 151.089844 14.996094 151.089844 14.976562 C 151.089844 14.972656 151.089844 14.96875 151.089844 14.96875 C 151.089844 14.964844 151.089844 14.960938 151.089844 14.953125 C 151.089844 14.949219 151.089844 14.945312 151.089844 14.941406 C 151.089844 14.9375 151.089844 14.933594 151.089844 14.925781 C 151.089844 14.921875 151.089844 14.917969 151.089844 14.914062 C 151.089844 14.910156 151.089844 14.902344 151.089844 14.898438 C 151.089844 14.894531 151.089844 14.890625 151.089844 14.886719 C 151.089844 14.882812 151.089844 14.878906 151.089844 14.871094 C 151.085938 14.867188 151.085938 14.863281 151.085938 14.855469 C 151.085938 14.851562 151.085938 14.84375 151.085938 14.839844 C 151.085938 14.832031 151.085938 14.824219 151.085938 14.820312 C 151.085938 14.816406 151.085938 14.816406 151.085938 14.808594 C 151.085938 14.804688 151.085938 14.800781 151.085938 14.792969 C 151.085938 14.789062 151.085938 14.785156 151.085938 14.78125 C 151.085938 14.777344 151.085938 14.769531 151.085938 14.765625 C 151.085938 14.761719 151.085938 14.757812 151.085938 14.753906 C 151.085938 14.75 151.085938 14.742188 151.085938 14.738281 C 151.085938 14.734375 151.085938 14.730469 151.085938 14.726562 C 151.085938 14.71875 151.085938 14.710938 151.085938 14.703125 C 151.085938 13.917969 151.71875 13.285156 152.503906 13.285156 L 222.300781 13.285156 C 223.085938 13.285156 223.71875 13.917969 223.71875 14.703125 C 223.71875 15.316406 223.683594 15.917969 223.628906 16.515625 L 158.9375 16.515625 C 158.152344 16.515625 157.519531 17.148438 157.519531 17.933594 C 157.519531 23.695312 160.261719 28.84375 164.496094 32.167969 " fill-opacity="1" fill-rule="nonzero"/><path fill="#1ab293" d="M 278.527344 39.277344 L 96.277344 39.277344 L 96.429688 36.046875 L 278.375 36.046875 C 278.46875 37.109375 278.527344 38.1875 278.527344 39.277344 " fill-opacity="1" fill-rule="nonzero"/><g clip-path="url(#18dde176a2)"><path fill="#636c76" d="M 85.25 371.679688 C 80.035156 371.679688 75.769531 367.414062 75.769531 362.207031 L 75.769531 312.964844 C 75.769531 307.753906 80.035156 303.492188 85.25 303.492188 C 90.460938 303.492188 94.730469 307.753906 94.730469 312.964844 L 94.730469 362.207031 C 94.730469 367.414062 90.460938 371.679688 85.25 371.679688 " fill-opacity="1" fill-rule="nonzero"/></g><g clip-path="url(#9d0bd49ab0)"><path fill="#636c76" d="M 291 371.679688 C 285.785156 371.679688 281.519531 367.414062 281.519531 362.207031 L 281.519531 312.964844 C 281.519531 307.753906 285.785156 303.492188 291 303.492188 C 296.214844 303.492188 300.484375 307.753906 300.484375 312.964844 L 300.484375 362.207031 C 300.484375 367.414062 296.214844 371.679688 291 371.679688 " fill-opacity="1" fill-rule="nonzero"/></g><path fill="#ffffff" d="M 75.769531 359.101562 L 75.769531 312.964844 C 75.769531 307.839844 79.894531 303.632812 84.992188 303.496094 C 79.894531 303.632812 75.769531 307.839844 75.769531 312.964844 L 75.769531 359.101562 M 85.285156 303.492188 C 85.285156 303.492188 85.285156 303.492188 85.28125 303.492188 C 85.285156 303.492188 85.285156 303.492188 85.285156 303.492188 M 85.269531 303.492188 C 85.269531 303.492188 85.265625 303.492188 85.265625 303.492188 C 85.265625 303.492188 85.269531 303.492188 85.269531 303.492188 " fill-opacity="1" fill-rule="nonzero"/><path fill="#737b84" d="M 80.027344 360.125 C 78.496094 360.125 77.050781 359.75 75.769531 359.101562 L 75.769531 312.964844 C 75.769531 307.839844 79.894531 303.632812 84.992188 303.496094 C 85.074219 303.492188 85.164062 303.492188 85.25 303.492188 C 85.253906 303.492188 85.261719 303.492188 85.265625 303.492188 C 85.265625 303.492188 85.269531 303.492188 85.269531 303.492188 C 85.273438 303.492188 85.28125 303.492188 85.28125 303.492188 C 85.285156 303.492188 85.285156 303.492188 85.285156 303.492188 C 85.292969 303.492188 85.296875 303.492188 85.300781 303.492188 C 86.8125 303.5 88.238281 303.875 89.511719 304.519531 L 89.511719 350.652344 C 89.511719 355.863281 85.242188 360.125 80.027344 360.125 " fill-opacity="1" fill-rule="nonzero"/><path fill="#737b84" d="M 285.78125 360.125 C 284.25 360.125 282.800781 359.75 281.519531 359.101562 L 281.519531 312.964844 C 281.519531 307.753906 285.785156 303.492188 291 303.492188 C 291.007812 303.492188 291.011719 303.492188 291.019531 303.492188 C 291.019531 303.492188 291.019531 303.492188 291.023438 303.492188 C 291.027344 303.492188 291.03125 303.492188 291.035156 303.492188 C 291.039062 303.492188 291.039062 303.492188 291.039062 303.492188 C 291.042969 303.492188 291.050781 303.492188 291.054688 303.492188 C 292.566406 303.5 293.992188 303.875 295.261719 304.519531 L 295.261719 350.652344 C 295.261719 355.863281 290.996094 360.125 285.78125 360.125 " fill-opacity="1" fill-rule="nonzero"/><path fill="#e4e8eb" d="M 209.660156 149.28125 L 206.488281 150.652344 L 200.414062 140.140625 C 194.574219 130.039062 179.976562 130.039062 174.140625 140.140625 L 164.847656 156.21875 C 164.34375 157.09375 164.976562 158.1875 165.988281 158.1875 L 175.96875 158.1875 C 176.441406 158.1875 176.875 157.941406 177.109375 157.53125 L 183.90625 145.773438 C 184.882812 144.082031 186.4375 143.832031 187.277344 143.832031 C 188.117188 143.832031 189.671875 144.082031 190.648438 145.773438 L 196.066406 155.148438 L 192.707031 156.597656 C 190.9375 157.363281 190.964844 159.878906 192.75 160.601562 L 204.953125 165.5625 C 206.078125 166.019531 207.363281 165.464844 207.800781 164.332031 L 212.550781 152.058594 C 213.246094 150.261719 211.429688 148.515625 209.660156 149.28125 " fill-opacity="1" fill-rule="nonzero"/><path fill="#e4e8eb" d="M 226.242188 184.601562 L 216.90625 168.550781 C 216.394531 167.675781 215.128906 167.679688 214.625 168.558594 L 209.660156 177.210938 C 209.425781 177.617188 209.429688 178.117188 209.664062 178.527344 L 216.492188 190.261719 C 217.476562 191.953125 216.921875 193.421875 216.503906 194.152344 C 216.085938 194.878906 215.09375 196.101562 213.136719 196.105469 L 202.304688 196.136719 L 202.714844 192.507812 C 202.933594 190.597656 200.734375 189.367188 199.21875 190.554688 L 188.84375 198.664062 C 187.886719 199.410156 187.726562 200.796875 188.492188 201.742188 L 196.789062 211.964844 C 198 213.460938 200.417969 212.753906 200.632812 210.84375 L 201.023438 207.410156 L 213.171875 207.375 C 224.847656 207.339844 232.109375 194.6875 226.242188 184.601562 " fill-opacity="1" fill-rule="nonzero"/><path fill="#e4e8eb" d="M 181.363281 205.554688 L 176.394531 196.902344 C 176.160156 196.496094 175.726562 196.246094 175.257812 196.242188 L 161.667969 196.207031 C 159.714844 196.203125 158.71875 194.980469 158.300781 194.253906 C 157.882812 193.527344 157.328125 192.054688 158.3125 190.363281 L 163.753906 181.003906 L 166.683594 183.191406 C 168.226562 184.34375 170.394531 183.066406 170.136719 181.160156 L 168.367188 168.117188 C 168.203125 166.914062 167.085938 166.078125 165.882812 166.265625 L 152.863281 168.257812 C 150.960938 168.546875 150.347656 170.988281 151.890625 172.140625 L 154.660156 174.210938 L 148.558594 184.707031 C 142.695312 194.796875 149.960938 207.445312 161.640625 207.476562 L 180.21875 207.523438 C 181.234375 207.527344 181.867188 206.433594 181.363281 205.554688 " fill-opacity="1" fill-rule="nonzero"/></svg>