<svg xmlns="http://www.w3.org/2000/svg" xmlns:xlink="http://www.w3.org/1999/xlink" width="1920" zoomAndPan="magnify" viewBox="0 0 1440 809.999993" height="1080" preserveAspectRatio="xMidYMid meet" version="1.0"><defs><clipPath id="d30a511860"><path d="M 1058 322 L 1224 322 L 1224 488 L 1058 488 Z M 1058 322 " clip-rule="nonzero"/></clipPath><clipPath id="cbbb150769"><path d="M 1141.097656 322.859375 C 1095.773438 322.859375 1058.890625 359.785156 1058.890625 405.167969 C 1058.890625 450.550781 1095.773438 487.476562 1141.097656 487.476562 C 1186.421875 487.476562 1223.304688 450.550781 1223.304688 405.167969 C 1223.304688 359.785156 1186.421875 322.859375 1141.097656 322.859375 Z M 1141.097656 472.511719 C 1104.015625 472.511719 1073.839844 442.304688 1073.839844 405.167969 C 1073.839844 368.03125 1104.015625 337.824219 1141.097656 337.824219 C 1178.179688 337.824219 1208.355469 368.03125 1208.355469 405.167969 C 1208.355469 442.304688 1178.179688 472.511719 1141.097656 472.511719 Z M 1141.097656 472.511719 " clip-rule="nonzero"/></clipPath><linearGradient x1="20.804053" gradientTransform="matrix(7.473214, 0, 0, 7.482642, 901.954828, 165.722309)" y1="21.203206" x2="43.19668" gradientUnits="userSpaceOnUse" y2="42.796036" id="3fd991fb61"><stop stop-opacity="1" stop-color="rgb(21.549988%, 69.725037%, 80.691528%)" offset="0"/><stop stop-opacity="1" stop-color="rgb(21.572876%, 69.819641%, 80.577087%)" offset="0.03125"/><stop stop-opacity="1" stop-color="rgb(21.620178%, 70.010376%, 80.349731%)" offset="0.0625"/><stop stop-opacity="1" stop-color="rgb(21.66748%, 70.201111%, 80.122375%)" offset="0.09375"/><stop stop-opacity="1" stop-color="rgb(21.714783%, 70.391846%, 79.89502%)" offset="0.125"/><stop stop-opacity="1" stop-color="rgb(21.762085%, 70.582581%, 79.667664%)" offset="0.15625"/><stop stop-opacity="1" stop-color="rgb(21.809387%, 70.773315%, 79.441833%)" offset="0.1875"/><stop stop-opacity="1" stop-color="rgb(21.856689%, 70.96405%, 79.214478%)" offset="0.21875"/><stop stop-opacity="1" stop-color="rgb(21.903992%, 71.154785%, 78.987122%)" offset="0.25"/><stop stop-opacity="1" stop-color="rgb(21.951294%, 71.34552%, 78.759766%)" offset="0.28125"/><stop stop-opacity="1" stop-color="rgb(21.998596%, 71.536255%, 78.53241%)" offset="0.3125"/><stop stop-opacity="1" stop-color="rgb(22.045898%, 71.72699%, 78.305054%)" offset="0.34375"/><stop stop-opacity="1" stop-color="rgb(22.093201%, 71.917725%, 78.077698%)" offset="0.375"/><stop stop-opacity="1" stop-color="rgb(22.140503%, 72.108459%, 77.850342%)" offset="0.40625"/><stop stop-opacity="1" stop-color="rgb(22.187805%, 72.299194%, 77.622986%)" offset="0.4375"/><stop stop-opacity="1" stop-color="rgb(22.235107%, 72.489929%, 77.39563%)" offset="0.46875"/><stop stop-opacity="1" stop-color="rgb(22.28241%, 72.679138%, 77.168274%)" offset="0.490908"/><stop stop-opacity="1" stop-color="rgb(22.306824%, 72.775269%, 77.055359%)" offset="0.5"/><stop stop-opacity="1" stop-color="rgb(22.329712%, 72.869873%, 76.940918%)" offset="0.509092"/><stop stop-opacity="1" stop-color="rgb(22.354126%, 72.966003%, 76.828003%)" offset="0.53125"/><stop stop-opacity="1" stop-color="rgb(22.377014%, 73.060608%, 76.715088%)" offset="0.5625"/><stop stop-opacity="1" stop-color="rgb(22.424316%, 73.251343%, 76.487732%)" offset="0.59375"/><stop stop-opacity="1" stop-color="rgb(22.471619%, 73.442078%, 76.260376%)" offset="0.625"/><stop stop-opacity="1" stop-color="rgb(22.518921%, 73.632812%, 76.03302%)" offset="0.65625"/><stop stop-opacity="1" stop-color="rgb(22.566223%, 73.823547%, 75.805664%)" offset="0.6875"/><stop stop-opacity="1" stop-color="rgb(22.613525%, 74.014282%, 75.578308%)" offset="0.71875"/><stop stop-opacity="1" stop-color="rgb(22.659302%, 74.205017%, 75.350952%)" offset="0.75"/><stop stop-opacity="1" stop-color="rgb(22.706604%, 74.395752%, 75.123596%)" offset="0.78125"/><stop stop-opacity="1" stop-color="rgb(22.753906%, 74.586487%, 74.89624%)" offset="0.8125"/><stop stop-opacity="1" stop-color="rgb(22.801208%, 74.777222%, 74.668884%)" offset="0.84375"/><stop stop-opacity="1" stop-color="rgb(22.848511%, 74.967957%, 74.441528%)" offset="0.875"/><stop stop-opacity="1" stop-color="rgb(22.895813%, 75.158691%, 74.214172%)" offset="0.90625"/><stop stop-opacity="1" stop-color="rgb(22.943115%, 75.3479%, 73.988342%)" offset="0.9375"/><stop stop-opacity="1" stop-color="rgb(22.990417%, 75.538635%, 73.760986%)" offset="0.96875"/><stop stop-opacity="1" stop-color="rgb(23.03772%, 75.72937%, 73.53363%)" offset="1"/></linearGradient><clipPath id="f0bb5ec7d6"><path d="M 1096 352 L 1186 352 L 1186 458 L 1096 458 Z M 1096 352 " clip-rule="nonzero"/></clipPath><clipPath id="528c8e78d7"><path d="M 1182.3125 376.304688 L 1144.945312 353.859375 C 1142.578125 352.445312 1139.625 352.445312 1137.257812 353.859375 L 1099.890625 376.304688 C 1097.632812 377.652344 1096.257812 380.085938 1096.257812 382.71875 L 1096.257812 427.613281 C 1096.257812 430.25 1097.632812 432.679688 1099.882812 434.027344 L 1137.25 456.476562 C 1138.4375 457.1875 1139.765625 457.546875 1141.097656 457.546875 C 1142.429688 457.546875 1143.757812 457.1875 1144.945312 456.476562 L 1182.3125 434.027344 C 1184.5625 432.679688 1185.9375 430.25 1185.9375 427.613281 L 1185.9375 382.71875 C 1185.9375 380.085938 1184.5625 377.652344 1182.3125 376.304688 Z M 1141.097656 368.996094 L 1163.9375 382.71875 L 1141.097656 396.441406 L 1118.257812 382.71875 Z M 1111.203125 395.933594 L 1133.625 409.402344 L 1133.625 436.839844 L 1111.203125 423.371094 Z M 1148.570312 436.847656 L 1148.570312 409.410156 L 1170.992188 395.941406 L 1170.992188 423.378906 Z M 1148.570312 436.847656 " clip-rule="nonzero"/></clipPath><linearGradient x1="25.370632" gradientTransform="matrix(7.473214, 0, 0, 7.482642, 901.954828, 165.722309)" y1="25.606681" x2="38.607116" gradientUnits="userSpaceOnUse" y2="38.370397" id="1041344caa"><stop stop-opacity="1" stop-color="rgb(21.858215%, 70.970154%, 79.208374%)" offset="0"/><stop stop-opacity="1" stop-color="rgb(21.885681%, 71.081543%, 79.074097%)" offset="0.0625"/><stop stop-opacity="1" stop-color="rgb(21.942139%, 71.307373%, 78.805542%)" offset="0.125"/><stop stop-opacity="1" stop-color="rgb(21.99707%, 71.533203%, 78.536987%)" offset="0.1875"/><stop stop-opacity="1" stop-color="rgb(22.053528%, 71.759033%, 78.268433%)" offset="0.25"/><stop stop-opacity="1" stop-color="rgb(22.109985%, 71.983337%, 77.999878%)" offset="0.3125"/><stop stop-opacity="1" stop-color="rgb(22.164917%, 72.209167%, 77.731323%)" offset="0.375"/><stop stop-opacity="1" stop-color="rgb(22.221375%, 72.434998%, 77.462769%)" offset="0.4375"/><stop stop-opacity="1" stop-color="rgb(22.276306%, 72.659302%, 77.194214%)" offset="0.469772"/><stop stop-opacity="1" stop-color="rgb(22.305298%, 72.772217%, 77.059937%)" offset="0.5"/><stop stop-opacity="1" stop-color="rgb(22.332764%, 72.885132%, 76.925659%)" offset="0.530228"/><stop stop-opacity="1" stop-color="rgb(22.361755%, 72.998047%, 76.791382%)" offset="0.5625"/><stop stop-opacity="1" stop-color="rgb(22.389221%, 73.110962%, 76.657104%)" offset="0.625"/><stop stop-opacity="1" stop-color="rgb(22.444153%, 73.335266%, 76.38855%)" offset="0.6875"/><stop stop-opacity="1" stop-color="rgb(22.50061%, 73.561096%, 76.119995%)" offset="0.75"/><stop stop-opacity="1" stop-color="rgb(22.557068%, 73.786926%, 75.85144%)" offset="0.8125"/><stop stop-opacity="1" stop-color="rgb(22.612%, 74.01123%, 75.582886%)" offset="0.875"/><stop stop-opacity="1" stop-color="rgb(22.668457%, 74.237061%, 75.312805%)" offset="0.9375"/><stop stop-opacity="1" stop-color="rgb(22.724915%, 74.462891%, 75.04425%)" offset="1"/></linearGradient><clipPath id="b5005bff7c"><path d="M 931.847656 180.542969 L 1350.347656 180.542969 L 1350.347656 629.792969 L 931.847656 629.792969 Z M 931.847656 180.542969 " clip-rule="nonzero"/></clipPath><clipPath id="08c8e74b89"><path d="M 1346.722656 344.234375 C 1348.972656 342.890625 1350.347656 340.457031 1350.347656 337.824219 L 1350.347656 300.410156 C 1350.347656 297.777344 1348.972656 295.34375 1346.722656 293.996094 L 1309.355469 271.550781 C 1306.988281 270.136719 1304.035156 270.136719 1301.667969 271.550781 L 1268.097656 291.714844 L 1185.9375 243.730469 L 1185.9375 210.617188 C 1185.9375 207.984375 1184.5625 205.550781 1182.3125 204.207031 L 1144.945312 181.757812 C 1142.578125 180.34375 1139.625 180.34375 1137.257812 181.757812 L 1099.890625 204.207031 C 1097.632812 205.550781 1096.257812 207.984375 1096.257812 210.617188 L 1096.257812 243.730469 L 1014.105469 291.714844 L 980.535156 271.550781 C 978.167969 270.136719 975.214844 270.136719 972.847656 271.550781 L 935.480469 293.996094 C 933.222656 295.34375 931.847656 297.777344 931.847656 300.410156 L 931.847656 337.824219 C 931.847656 340.457031 933.222656 342.890625 935.472656 344.234375 L 969.214844 364.507812 L 969.214844 445.828125 L 935.472656 466.097656 C 933.222656 467.445312 931.847656 469.875 931.847656 472.511719 L 931.847656 509.921875 C 931.847656 512.558594 933.222656 514.988281 935.472656 516.335938 L 972.839844 538.785156 C 974.027344 539.496094 975.355469 539.855469 976.6875 539.855469 C 978.015625 539.855469 979.347656 539.496094 980.535156 538.785156 L 1014.105469 518.617188 L 1096.257812 566.605469 L 1096.257812 599.714844 C 1096.257812 602.347656 1097.632812 604.78125 1099.882812 606.128906 L 1137.25 628.574219 C 1138.4375 629.285156 1139.765625 629.644531 1141.097656 629.644531 C 1142.429688 629.644531 1143.757812 629.285156 1144.945312 628.574219 L 1182.3125 606.128906 C 1184.5625 604.78125 1185.9375 602.347656 1185.9375 599.714844 L 1185.9375 566.605469 L 1268.089844 518.617188 L 1301.660156 538.785156 C 1302.847656 539.496094 1304.179688 539.855469 1305.507812 539.855469 C 1306.839844 539.855469 1308.167969 539.496094 1309.355469 538.785156 L 1346.722656 516.335938 C 1348.972656 514.988281 1350.347656 512.558594 1350.347656 509.921875 L 1350.347656 472.511719 C 1350.347656 469.875 1348.972656 467.445312 1346.722656 466.097656 L 1312.980469 445.828125 L 1312.980469 364.507812 Z M 1103.679688 256.726562 L 1133.625 274.714844 L 1133.625 293.300781 C 1095.734375 295.824219 1063.011719 317.207031 1044.671875 348.207031 L 1021.527344 333.675781 L 1021.527344 304.710938 Z M 1260.667969 304.710938 L 1260.667969 333.671875 L 1237.480469 348.140625 C 1219.140625 317.179688 1186.429688 295.824219 1148.570312 293.300781 L 1148.570312 274.714844 L 1178.515625 256.726562 Z M 1298.035156 445.828125 L 1268.230469 463.734375 L 1244.390625 448.769531 C 1250.058594 435.351562 1253.195312 420.617188 1253.195312 405.167969 C 1253.195312 389.679688 1250.050781 374.921875 1244.355469 361.484375 L 1268.21875 346.59375 L 1298.035156 364.507812 Z M 1141.097656 576.027344 L 1118.257812 562.300781 L 1141.097656 548.578125 L 1163.9375 562.300781 Z M 1141.097656 502.441406 C 1087.53125 502.441406 1043.945312 458.800781 1043.945312 405.167969 C 1043.945312 351.53125 1087.53125 307.890625 1141.097656 307.890625 C 1194.664062 307.890625 1238.25 351.53125 1238.25 405.167969 C 1238.25 458.800781 1194.664062 502.441406 1141.097656 502.441406 Z M 1013.964844 463.734375 L 984.160156 445.828125 L 984.160156 364.507812 L 1013.964844 346.601562 L 1037.804688 361.566406 C 1032.136719 374.980469 1029 389.714844 1029 405.167969 C 1029 420.617188 1032.136719 435.351562 1037.804688 448.769531 Z M 984.160156 327.09375 L 1006.578125 313.625 L 1006.578125 333.582031 L 984.160156 347.050781 Z M 1275.617188 313.625 L 1298.035156 327.09375 L 1298.035156 347.050781 L 1275.617188 333.582031 Z M 1170.992188 243.796875 L 1148.570312 257.265625 L 1148.570312 237.300781 L 1170.992188 223.832031 Z M 1133.625 237.300781 L 1133.625 257.257812 L 1111.203125 243.789062 L 1111.203125 223.832031 Z M 999.523438 472.511719 L 976.6875 486.234375 L 953.847656 472.511719 L 976.6875 458.789062 Z M 1021.527344 476.65625 L 1044.671875 462.125 C 1063.003906 493.117188 1095.734375 514.511719 1133.625 517.03125 L 1133.625 535.621094 L 1103.679688 553.609375 L 1021.527344 505.621094 Z M 1178.515625 553.609375 L 1148.570312 535.621094 L 1148.570312 517.03125 C 1186.460938 514.511719 1219.183594 493.125 1237.523438 462.125 L 1260.667969 476.65625 L 1260.667969 505.621094 Z M 1305.507812 486.234375 L 1282.671875 472.511719 L 1305.507812 458.789062 L 1328.347656 472.511719 Z M 1312.980469 347.054688 L 1312.980469 327.101562 L 1335.402344 313.632812 L 1335.402344 333.589844 Z M 1305.507812 286.6875 L 1328.347656 300.410156 L 1305.507812 314.132812 L 1282.671875 300.410156 Z M 1141.097656 196.894531 L 1163.9375 210.617188 L 1141.097656 224.339844 L 1118.257812 210.617188 Z M 976.6875 286.6875 L 999.523438 300.410156 L 976.6875 314.132812 L 953.847656 300.410156 Z M 946.792969 313.625 L 969.214844 327.09375 L 969.214844 347.050781 L 946.792969 333.582031 Z M 946.792969 485.726562 L 969.214844 499.195312 L 969.214844 519.148438 L 946.792969 505.679688 Z M 984.160156 519.15625 L 984.160156 499.203125 L 1006.578125 485.734375 L 1006.578125 505.6875 Z M 1111.203125 575.515625 L 1133.625 588.984375 L 1133.625 608.941406 L 1111.203125 595.472656 Z M 1148.570312 608.949219 L 1148.570312 588.992188 L 1170.992188 575.523438 L 1170.992188 595.480469 Z M 1275.617188 485.726562 L 1298.035156 499.195312 L 1298.035156 519.148438 L 1275.617188 505.679688 Z M 1312.980469 519.15625 L 1312.980469 499.203125 L 1335.402344 485.734375 L 1335.402344 505.6875 Z M 1312.980469 519.15625 " clip-rule="nonzero"/></clipPath><linearGradient x1="2.491587" gradientTransform="matrix(7.473214, 0, 0, 7.482642, 901.954828, 165.722309)" y1="3.544807" x2="61.499409" gradientUnits="userSpaceOnUse" y2="60.445047" id="395bc03f1b"><stop stop-opacity="1" stop-color="rgb(20.799255%, 66.699219%, 84.298706%)" offset="0"/><stop stop-opacity="1" stop-color="rgb(20.805359%, 66.722107%, 84.269714%)" offset="0.125"/><stop stop-opacity="1" stop-color="rgb(20.84198%, 66.871643%, 84.092712%)" offset="0.140625"/><stop stop-opacity="1" stop-color="rgb(20.903015%, 67.123413%, 83.79364%)" offset="0.15625"/><stop stop-opacity="1" stop-color="rgb(20.965576%, 67.373657%, 83.494568%)" offset="0.171875"/><stop stop-opacity="1" stop-color="rgb(21.028137%, 67.625427%, 83.195496%)" offset="0.1875"/><stop stop-opacity="1" stop-color="rgb(21.090698%, 67.875671%, 82.894897%)" offset="0.203125"/><stop stop-opacity="1" stop-color="rgb(21.153259%, 68.127441%, 82.595825%)" offset="0.21875"/><stop stop-opacity="1" stop-color="rgb(21.21582%, 68.379211%, 82.296753%)" offset="0.234375"/><stop stop-opacity="1" stop-color="rgb(21.276855%, 68.629456%, 81.997681%)" offset="0.25"/><stop stop-opacity="1" stop-color="rgb(21.339417%, 68.881226%, 81.698608%)" offset="0.265625"/><stop stop-opacity="1" stop-color="rgb(21.401978%, 69.13147%, 81.39801%)" offset="0.28125"/><stop stop-opacity="1" stop-color="rgb(21.464539%, 69.38324%, 81.098938%)" offset="0.296875"/><stop stop-opacity="1" stop-color="rgb(21.5271%, 69.63501%, 80.799866%)" offset="0.3125"/><stop stop-opacity="1" stop-color="rgb(21.589661%, 69.885254%, 80.500793%)" offset="0.328125"/><stop stop-opacity="1" stop-color="rgb(21.650696%, 70.137024%, 80.200195%)" offset="0.34375"/><stop stop-opacity="1" stop-color="rgb(21.713257%, 70.387268%, 79.901123%)" offset="0.359375"/><stop stop-opacity="1" stop-color="rgb(21.775818%, 70.639038%, 79.602051%)" offset="0.375"/><stop stop-opacity="1" stop-color="rgb(21.838379%, 70.890808%, 79.302979%)" offset="0.390625"/><stop stop-opacity="1" stop-color="rgb(21.90094%, 71.141052%, 79.003906%)" offset="0.40625"/><stop stop-opacity="1" stop-color="rgb(21.961975%, 71.392822%, 78.703308%)" offset="0.421875"/><stop stop-opacity="1" stop-color="rgb(22.024536%, 71.643066%, 78.404236%)" offset="0.4375"/><stop stop-opacity="1" stop-color="rgb(22.087097%, 71.894836%, 78.105164%)" offset="0.453125"/><stop stop-opacity="1" stop-color="rgb(22.149658%, 72.146606%, 77.806091%)" offset="0.46875"/><stop stop-opacity="1" stop-color="rgb(22.212219%, 72.396851%, 77.507019%)" offset="0.484375"/><stop stop-opacity="1" stop-color="rgb(22.27478%, 72.648621%, 77.206421%)" offset="0.491764"/><stop stop-opacity="1" stop-color="rgb(22.305298%, 72.775269%, 77.056885%)" offset="0.5"/><stop stop-opacity="1" stop-color="rgb(22.335815%, 72.900391%, 76.907349%)" offset="0.508236"/><stop stop-opacity="1" stop-color="rgb(22.367859%, 73.025513%, 76.757812%)" offset="0.515625"/><stop stop-opacity="1" stop-color="rgb(22.398376%, 73.150635%, 76.608276%)" offset="0.53125"/><stop stop-opacity="1" stop-color="rgb(22.460938%, 73.402405%, 76.309204%)" offset="0.546875"/><stop stop-opacity="1" stop-color="rgb(22.523499%, 73.652649%, 76.010132%)" offset="0.5625"/><stop stop-opacity="1" stop-color="rgb(22.58606%, 73.904419%, 75.709534%)" offset="0.578125"/><stop stop-opacity="1" stop-color="rgb(22.648621%, 74.156189%, 75.410461%)" offset="0.59375"/><stop stop-opacity="1" stop-color="rgb(22.709656%, 74.406433%, 75.111389%)" offset="0.609375"/><stop stop-opacity="1" stop-color="rgb(22.772217%, 74.658203%, 74.812317%)" offset="0.625"/><stop stop-opacity="1" stop-color="rgb(22.834778%, 74.908447%, 74.513245%)" offset="0.640625"/><stop stop-opacity="1" stop-color="rgb(22.897339%, 75.160217%, 74.212646%)" offset="0.65625"/><stop stop-opacity="1" stop-color="rgb(22.9599%, 75.411987%, 73.913574%)" offset="0.671875"/><stop stop-opacity="1" stop-color="rgb(23.020935%, 75.662231%, 73.614502%)" offset="0.6875"/><stop stop-opacity="1" stop-color="rgb(23.083496%, 75.914001%, 73.31543%)" offset="0.703125"/><stop stop-opacity="1" stop-color="rgb(23.146057%, 76.164246%, 73.014832%)" offset="0.71875"/><stop stop-opacity="1" stop-color="rgb(23.208618%, 76.416016%, 72.715759%)" offset="0.734375"/><stop stop-opacity="1" stop-color="rgb(23.271179%, 76.667786%, 72.416687%)" offset="0.75"/><stop stop-opacity="1" stop-color="rgb(23.33374%, 76.91803%, 72.117615%)" offset="0.765625"/><stop stop-opacity="1" stop-color="rgb(23.394775%, 77.1698%, 71.818542%)" offset="0.78125"/><stop stop-opacity="1" stop-color="rgb(23.457336%, 77.420044%, 71.517944%)" offset="0.796875"/><stop stop-opacity="1" stop-color="rgb(23.519897%, 77.671814%, 71.218872%)" offset="0.8125"/><stop stop-opacity="1" stop-color="rgb(23.582458%, 77.923584%, 70.9198%)" offset="0.828125"/><stop stop-opacity="1" stop-color="rgb(23.64502%, 78.173828%, 70.620728%)" offset="0.84375"/><stop stop-opacity="1" stop-color="rgb(23.706055%, 78.425598%, 70.321655%)" offset="0.859375"/><stop stop-opacity="1" stop-color="rgb(23.768616%, 78.675842%, 70.021057%)" offset="0.875"/><stop stop-opacity="1" stop-color="rgb(23.831177%, 78.927612%, 69.721985%)" offset="0.890625"/><stop stop-opacity="1" stop-color="rgb(23.881531%, 79.125977%, 69.485474%)" offset="0.90625"/><stop stop-opacity="1" stop-color="rgb(23.899841%, 79.199219%, 69.398499%)" offset="0.9375"/><stop stop-opacity="1" stop-color="rgb(23.899841%, 79.199219%, 69.398499%)" offset="1"/></linearGradient></defs><rect x="-144" width="1728" fill="#ffffff" y="-80.999999" height="971.999992" fill-opacity="1"/><rect x="-144" width="1728" fill="#ffffff" y="-80.999999" height="971.999992" fill-opacity="1"/><rect x="-144" width="1728" fill="#001540" y="-80.999999" height="971.999992" fill-opacity="1"/><g clip-path="url(#d30a511860)"><g clip-path="url(#cbbb150769)"><path fill="url(#3fd991fb61)" d="M 1058.890625 322.859375 L 1058.890625 487.476562 L 1223.304688 487.476562 L 1223.304688 322.859375 Z M 1058.890625 322.859375 " fill-rule="nonzero"/></g></g><g clip-path="url(#f0bb5ec7d6)"><g clip-path="url(#528c8e78d7)"><path fill="url(#1041344caa)" d="M 1096.257812 352.445312 L 1096.257812 457.546875 L 1185.9375 457.546875 L 1185.9375 352.445312 Z M 1096.257812 352.445312 " fill-rule="nonzero"/></g></g><g clip-path="url(#b5005bff7c)"><g clip-path="url(#08c8e74b89)"><path fill="url(#395bc03f1b)" d="M 931.847656 180.542969 L 931.847656 629.644531 L 1350.347656 629.644531 L 1350.347656 180.542969 Z M 931.847656 180.542969 " fill-rule="nonzero"/></g></g></svg>